<svg xmlns="http://www.w3.org/2000/svg" viewBox="0 0 32 32">
  <defs>
    <linearGradient id="e" x1="0" y1="0" x2="0" y2="1">
      <stop offset="0" stop-color="#ffd27a"/>
      <stop offset=".42" stop-color="#f97316"/>
      <stop offset="1" stop-color="#e11d2f"/>
    </linearGradient>
    <radialGradient id="s" cx="50%" cy="50%" r="50%">
      <stop offset="0" stop-color="#fff6e0"/>
      <stop offset="1" stop-color="#ffab3d" stop-opacity="0"/>
    </radialGradient>
    <filter id="glow" x="-50%" y="-50%" width="200%" height="200%">
      <feGaussianBlur stdDeviation="0.5" result="b"/>
      <feMerge><feMergeNode in="b"/><feMergeNode in="SourceGraphic"/></feMerge>
    </filter>
  </defs>
  <!-- Forge — plume-braise : la plume de queue du quetzal forgée dans l'ember. Fond TRANSPARENT, plume centrée. -->
  <g filter="url(#glow)">
    <path d="M16 3.4 C 21 9, 20.4 18, 16 28.6 C 11.6 18, 11 9, 16 3.4 Z" fill="url(#e)"/>
    <path d="M16 5.4 L 16 27.2" stroke="#3a0f06" stroke-width="0.7" fill="none" stroke-linecap="round" opacity=".45"/>
    <g stroke="#3a0f06" stroke-width="0.5" opacity=".28" fill="none" stroke-linecap="round">
      <path d="M16 9.4 C 14.8 9.8, 13.9 10.4, 13.1 11.6"/>
      <path d="M16 9.4 C 17.2 9.8, 18.1 10.4, 18.9 11.6"/>
      <path d="M16 13.4 C 14.6 13.9, 13.6 14.6, 12.8 16.1"/>
      <path d="M16 13.4 C 17.4 13.9, 18.4 14.6, 19.2 16.1"/>
      <path d="M16 17.4 C 14.7 17.9, 13.8 18.6, 13.1 20.3"/>
      <path d="M16 17.4 C 17.3 17.9, 18.2 18.6, 18.9 20.3"/>
      <path d="M16 21.4 C 15 21.8, 14.4 22.4, 13.8 23.7"/>
      <path d="M16 21.4 C 17 21.8, 17.6 22.4, 18.2 23.7"/>
    </g>
  </g>
  <circle cx="16" cy="4.1" r="4" fill="url(#s)"/>
  <circle cx="16" cy="4.1" r="1.4" fill="#fff6e0"/>
</svg>
