<svg xmlns="http://www.w3.org/2000/svg" viewBox="0 0 32 32">
  <defs>
    <linearGradient id="e" x1="0" y1="0" x2="0" y2="1">
      <stop offset="0" stop-color="#ffd27a"/>
      <stop offset=".4" stop-color="#f97316"/>
      <stop offset="1" stop-color="#e11d2f"/>
    </linearGradient>
    <radialGradient id="s" cx="50%" cy="50%" r="50%">
      <stop offset="0" stop-color="#fff6e0"/>
      <stop offset="1" stop-color="#ffab3d" stop-opacity="0"/>
    </radialGradient>
    <filter id="glow" x="-40%" y="-40%" width="180%" height="180%">
      <feGaussianBlur stdDeviation="0.5" result="b"/>
      <feMerge><feMergeNode in="b"/><feMergeNode in="SourceGraphic"/></feMerge>
    </filter>
  </defs>
  <rect width="32" height="32" rx="7" fill="#1a1210"/>
  <g filter="url(#glow)">
    <path d="M17.7 4.4 C 23.6 10.2, 22.6 18.6, 16.7 27.1 C 16.1 27.9, 15.2 27.6, 15.05 26.6 C 13.2 18.4, 12.4 10.6, 17.7 4.4 Z" fill="url(#e)"/>
    <path d="M16.75 6.2 C 15.55 13, 15.25 19.8, 15.6 26.1" stroke="#3a0f06" stroke-width="0.7" fill="none" stroke-linecap="round" opacity=".5"/>
    <g stroke="#3a0f06" stroke-width="0.5" opacity=".3" fill="none" stroke-linecap="round">
      <path d="M16.25 10.6 C 15 11, 14 11.5, 13.3 12.5"/>
      <path d="M16.5 10.1 C 17.7 10.4, 18.7 10.8, 19.4 11.6"/>
      <path d="M15.9 14.6 C 14.6 15.1, 13.6 15.7, 12.9 16.8"/>
      <path d="M16.15 14 C 17.35 14.3, 18.35 14.8, 19.1 15.6"/>
      <path d="M15.7 18.6 C 14.5 19.1, 13.7 19.7, 13.1 20.7"/>
      <path d="M15.85 18 C 16.9 18.3, 17.7 18.8, 18.5 19.6"/>
    </g>
  </g>
  <circle cx="17.7" cy="5.1" r="4.2" fill="url(#s)"/>
  <circle cx="17.7" cy="5.1" r="1.4" fill="#fff6e0"/>
</svg>
